SplineFontDB: 3.0
FontName: Jones-it-LightItalic
FullName: Jones* Light Italic
FamilyName: Jones* Light
Weight: Light
Copyright: 
UComments: "2016-1-29: Created with FontForge (http://fontforge.org)"
Version: 002.000
ItalicAngle: -10
UnderlinePosition: -150
UnderlineWidth: 50
Ascent: 784
Descent: 216
InvalidEm: 0
LayerCount: 2
Layer: 0 0 "Back" 1
Layer: 1 0 "Fore" 0
XUID: [1021 31 -699969567 4970488]
FSType: 0
OS2Version: 2
OS2_WeightWidthSlopeOnly: 0
OS2_UseTypoMetrics: 0
CreationTime: 1454127431
ModificationTime: 1454903048
PfmFamily: 17
TTFWeight: 300
TTFWidth: 5
LineGap: 0
VLineGap: 0
OS2TypoAscent: 784
OS2TypoAOffset: 0
OS2TypoDescent: -216
OS2TypoDOffset: 0
OS2TypoLinegap: 200
OS2WinAscent: 850
OS2WinAOffset: 0
OS2WinDescent: 300
OS2WinDOffset: 0
HheadAscent: 850
HheadAOffset: 0
HheadDescent: -300
HheadDOffset: 0
OS2SubXSize: 650
OS2SubYSize: 600
OS2SubXOff: 0
OS2SubYOff: 75
OS2SupXSize: 650
OS2SupYSize: 600
OS2SupXOff: 0
OS2SupYOff: 350
OS2StrikeYSize: 50
OS2StrikeYPos: 314
OS2CapHeight: 700
OS2XHeight: 520
OS2Vendor: 'PfEd'
Lookup: 5 0 0 "lig" { "lig-1"  } ['calt' ('DFLT' <'dflt' > 'grek' <'dflt' > 'latn' <'dflt' > ) ]
Lookup: 1 0 0 "fi" { "fi-1"  } ['ss01' ('DFLT' <'dflt' > 'grek' <'dflt' > 'latn' <'dflt' > ) ]
Lookup: 258 0 0 "kern" { "kerning" [150,0,2] } ['kern' ('DFLT' <'dflt' > 'grek' <'dflt' > 'latn' <'dflt' > ) ]
MarkAttachClasses: 1
DEI: 91125
KernClass2: 13 10 "kerning"
 3 A L
 5 D O Q
 3 F P
 3 K X
 3 V W
 13 b e h m n o p
 15 a c g q r s u z
 14 d f i j l t fi
 3 k x
 3 v w
 3 R B
 3 T Y
 1 A
 7 C G O Q
 3 T Y
 3 V W
 15 a m n p r s u z
 11 c d e g o q
 18 b f h i j k l t fi
 5 v w y
 1 x

StartChar: E
Encoding: 69 69 0
Width: 670
VWidth: 0
Flags: HMW
AnchorPoint: "ced" 495 0 basechar 0
AnchorPoint: "dot" 499.009 760 basechar 0
LayerCount: 2
Fore
SplineSet
169.296875 393 m 1
 629.296875 393 l 1
 616.954101562 323 l 1
 156.954101562 323 l 1
 169.296875 393 l 1
223.428710938 700 m 1
 733.428710938 700 l 1
 721.0859375 630 l 1
 211.0859375 630 l 1
 223.428710938 700 l 1
112.342773438 70 m 5
 622.342773438 70 l 5
 610 0 l 1
 100 0 l 1
 112.342773438 70 l 5
223.428710938 700 m 1
 293.428710938 700 l 1
 170 0 l 1
 100 0 l 1
 223.428710938 700 l 1
EndSplineSet
EndChar

StartChar: I
Encoding: 73 73 1
Width: 300
VWidth: 0
Flags: HMW
AnchorPoint: "ced" 155 0 basechar 0
AnchorPoint: "dot" 284.009 760 basechar 0
LayerCount: 2
Fore
SplineSet
238.428710938 700 m 1
 308.428710938 700 l 5
 185 0 l 5
 115 0 l 1
 238.428710938 700 l 1
EndSplineSet
EndChar

StartChar: F
Encoding: 70 70 2
Width: 665
VWidth: 0
Flags: HMW
AnchorPoint: "ced" 145 0 basechar 0
AnchorPoint: "dot" 499.009 760 basechar 0
LayerCount: 2
Fore
SplineSet
165.76953125 373 m 1
 625.76953125 373 l 1
 613.426757812 303 l 1
 153.426757812 303 l 1
 165.76953125 373 l 1
223.428710938 700 m 1
 733.428710938 700 l 1
 721.0859375 630 l 1
 211.0859375 630 l 1
 223.428710938 700 l 1
223.428710938 700 m 1
 303.428710938 700 l 5
 180 0 l 5
 100 0 l 1
 223.428710938 700 l 1
EndSplineSet
EndChar

StartChar: H
Encoding: 72 72 3
Width: 765
VWidth: 0
Flags: HMW
AnchorPoint: "ced" 625 0 basechar 0
AnchorPoint: "dot" 514.009 760 basechar 0
LayerCount: 2
Fore
SplineSet
718.428710938 700 m 1
 788.428710938 700 l 1
 665 0 l 1
 595 0 l 1
 718.428710938 700 l 1
169.296875 393 m 5
 679.296875 393 l 5
 666.954101562 323 l 1
 156.954101562 323 l 1
 169.296875 393 l 5
223.428710938 700 m 1
 293.428710938 700 l 1
 170 0 l 1
 100 0 l 1
 223.428710938 700 l 1
EndSplineSet
EndChar

StartChar: L
Encoding: 76 76 4
Width: 655
VWidth: 0
Flags: HMW
AnchorPoint: "ced" 365 0 basechar 0
AnchorPoint: "dot" 519.009 760 basechar 0
LayerCount: 2
Fore
SplineSet
112.342773438 70 m 5
 622.342773438 70 l 5
 610 0 l 1
 100 0 l 1
 112.342773438 70 l 5
223.428710938 700 m 1
 293.428710938 700 l 1
 170 0 l 1
 100 0 l 1
 223.428710938 700 l 1
EndSplineSet
EndChar

StartChar: T
Encoding: 84 84 5
Width: 690
VWidth: 0
Flags: HMW
AnchorPoint: "ced" 347 0 basechar 0
AnchorPoint: "dot" 479.009 760 basechar 0
LayerCount: 2
Fore
SplineSet
173.428710938 700 m 1
 763.428710938 700 l 1
 751.0859375 630 l 1
 161.0859375 630 l 1
 173.428710938 700 l 1
433.428710938 700 m 1
 503.428710938 700 l 1
 380 0 l 1
 310 0 l 1
 433.428710938 700 l 1
EndSplineSet
EndChar

StartChar: O
Encoding: 79 79 7
Width: 850
VWidth: 0
Flags: HMW
AnchorPoint: "ced" 425 0 basechar 0
AnchorPoint: "dot" 559.009 760 basechar 0
LayerCount: 2
Fore
SplineSet
201.71484375 350 m 4
 173.501953125 190 275.580078125 60 435.580078125 60 c 4
 595.580078125 60 743.501953125 190 771.71484375 350 c 4
 799.926757812 510 697.849609375 640 537.849609375 640 c 4
 377.849609375 640 229.926757812 510 201.71484375 350 c 4
131.71484375 350 m 4
 166.803710938 549 355.192382812 710 550.192382812 710 c 4
 745.192382812 710 876.803710938 549 841.71484375 350 c 4
 806.625 151 618.236328125 -10 423.236328125 -10 c 4
 228.236328125 -10 96.625 151 131.71484375 350 c 4
EndSplineSet
EndChar

StartChar: C
Encoding: 67 67 8
Width: 732
VWidth: 0
Flags: HMW
AnchorPoint: "ced" 425 0 basechar 0
AnchorPoint: "dot" 559.009 760 basechar 0
LayerCount: 2
Fore
SplineSet
201.71484375 350 m 0
 172.444335938 184 274.580078125 60 435.580078125 60 c 0
 523.580078125 60 608.6328125 100 672.388671875 161 c 1
 711.924804688 113 l 1
 633.700195312 38 529.236328125 -10 423.236328125 -10 c 0
 228.236328125 -10 96.625 151 131.71484375 350 c 0
 166.803710938 549 355.192382812 710 550.192382812 710 c 0
 656.192382812 710 743.728515625 662 795.50390625 587 c 1
 739.040039062 539 l 5
 696.795898438 600 625.849609375 640 537.849609375 640 c 0
 376.849609375 640 230.984375 516 201.71484375 350 c 0
EndSplineSet
EndChar

StartChar: A
Encoding: 65 65 9
Width: 800
VWidth: 0
InSpiro: 1
Flags: HMW
AnchorPoint: "ced" 712 0 basechar 0
AnchorPoint: "ring" 523.429 700 basechar 0
AnchorPoint: "dot" 534.009 760 basechar 0
LayerCount: 2
Fore
SplineSet
493.428710938 700 m 1
 553.428710938 700 l 1
 541.666015625 690 l 1
 491.666015625 690 l 1
 493.428710938 700 l 1
  Spiro
    493.429 700 v
    553.429 700 v
    541.666 690 v
    491.666 690 v
    0 0 z
  EndSpiro
239.844726562 260 m 1
 651.844726562 260 l 1
 639.501953125 190 l 1
 227.501953125 190 l 1
 239.844726562 260 l 1
  Spiro
    239.845 260 v
    651.845 260 v
    639.502 190 v
    227.502 190 v
    0 0 z
  EndSpiro
681 0 m 1
 487.666015625 690 l 1
 553.428710938 700 l 1
 760 0 l 1
 681 0 l 1
  Spiro
    681 0 v
    487.666 690 v
    553.429 700 v
    760 0 v
    0 0 z
  EndSpiro
493.428710938 700 m 1
 555.666015625 690 l 1
 119 0 l 1
 40 0 l 1
 493.428710938 700 l 1
  Spiro
    493.429 700 v
    555.666 690 v
    119 0 v
    40 0 v
    0 0 z
  EndSpiro
EndSplineSet
EndChar

StartChar: V
Encoding: 86 86 10
Width: 780
VWidth: 0
Flags: HMW
AnchorPoint: "ced" 390 0 basechar 0
AnchorPoint: "dot" 523.009 760 basechar 0
LayerCount: 2
Fore
SplineSet
430 0 m 1
 370 0 l 1
 381.763671875 10 l 1
 431.763671875 10 l 1
 430 0 l 1
238.428710938 700 m 5
 435.763671875 10 l 1
 370 0 l 1
 163.428710938 700 l 1
 238.428710938 700 l 5
430 0 m 1
 367.763671875 10 l 1
 796.428710938 700 l 1
 863.428710938 700 l 1
 430 0 l 1
EndSplineSet
EndChar

StartChar: G
Encoding: 71 71 11
Width: 782
VWidth: 0
Flags: HMW
AnchorPoint: "ced" 425 0 basechar 0
AnchorPoint: "dot" 559.009 760 basechar 0
LayerCount: 2
Fore
SplineSet
767.241210938 370 m 1
 754.8984375 300 l 1
 477.8984375 300 l 1
 490.241210938 370 l 1
 767.241210938 370 l 1
721.924804688 113 m 1
 651.924804688 113 l 1
 697.241210938 370 l 1
 767.241210938 370 l 1
 721.924804688 113 l 1
201.71484375 350 m 4
 172.444335938 184 274.580078125 60 435.580078125 60 c 4
 518.580078125 60 614.514648438 105 678.270507812 166 c 5
 721.924804688 113 l 1
 643.700195312 38 529.236328125 -10 423.236328125 -10 c 0
 228.236328125 -10 96.625 151 131.71484375 350 c 0
 166.803710938 549 355.192382812 710 550.192382812 710 c 0
 656.192382812 710 743.728515625 662 795.50390625 587 c 1
 739.040039062 539 l 1
 696.795898438 600 620.849609375 640 537.849609375 640 c 4
 376.849609375 640 230.984375 516 201.71484375 350 c 4
EndSplineSet
EndChar

StartChar: D
Encoding: 68 68 12
Width: 810
VWidth: 0
Flags: HMW
AnchorPoint: "ced" 325 0 basechar 0
AnchorPoint: "dot" 479.009 760 basechar 0
LayerCount: 2
Fore
SplineSet
223.428710938 700 m 1
 503.428710938 700 l 1
 491.0859375 630 l 1
 211.0859375 630 l 1
 223.428710938 700 l 1
112.342773438 70 m 5
 392.342773438 70 l 5
 380 0 l 1
 100 0 l 1
 112.342773438 70 l 5
223.428710938 700 m 1
 293.428710938 700 l 1
 170 0 l 1
 100 0 l 1
 223.428710938 700 l 1
392.342773438 70 m 5
 553.342773438 70 702.444335938 184 731.71484375 350 c 0
 760.984375 516 652.0859375 630 491.0859375 630 c 1
 503.428710938 700 l 1
 698.428710938 700 836.803710938 549 801.71484375 350 c 0
 766.625 151 575 0 380 0 c 1
 392.342773438 70 l 5
EndSplineSet
EndChar

StartChar: U
Encoding: 85 85 13
Width: 760
VWidth: 0
Flags: HMW
AnchorPoint: "ced" 380 0 basechar 0
AnchorPoint: "dot" 514.009 760 basechar 0
LayerCount: 2
Fore
SplineSet
654.37109375 280 m 1
 728.428710938 700 l 1
 793.428710938 700 l 1
 719.37109375 280 l 1
 654.37109375 280 l 1
139.37109375 280 m 1
 213.428710938 700 l 1
 278.428710938 700 l 1
 204.37109375 280 l 1
 139.37109375 280 l 1
654.37109375 280 m 1
 719.37109375 280 l 1
 689.572265625 111 537.236328125 -10 378.236328125 -10 c 0
 219.236328125 -10 109.572265625 111 139.37109375 280 c 1
 204.37109375 280 l 1
 181.625 151 262.698242188 55 389.698242188 55 c 0
 516.698242188 55 631.625 151 654.37109375 280 c 1
EndSplineSet
EndChar

StartChar: o
Encoding: 111 111 14
Width: 650
VWidth: 0
Flags: HMW
AnchorPoint: "ced" 325 0 basechar 0
AnchorPoint: "dot" 443.668 673 basechar 0
LayerCount: 2
Fore
SplineSet
165.844726562 260 m 0
 145.390625 144 220.81640625 50 333.81640625 50 c 0
 446.81640625 50 555.390625 144 575.844726562 260 c 0
 596.298828125 376 520.874023438 470 407.874023438 470 c 0
 294.874023438 470 186.298828125 376 165.844726562 260 c 0
100.844726562 260 m 0
 127.118164062 409 269.453125 530 418.453125 530 c 0
 567.453125 530 667.118164062 409 640.844726562 260 c 0
 614.572265625 111 472.236328125 -10 323.236328125 -10 c 0
 174.236328125 -10 74.572265625 111 100.844726562 260 c 0
EndSplineSet
EndChar

StartChar: B
Encoding: 66 66 15
Width: 695
VWidth: 0
Flags: HMW
AnchorPoint: "ced" 327 0 basechar 0
AnchorPoint: "dot" 442.009 760 basechar 0
LayerCount: 2
Fore
SplineSet
428.415039062 388 m 1
 521.415039062 388 600.646484375 412 617.397460938 507 c 0
 634.1484375 602 564.0859375 630 471.0859375 630 c 1
 483.428710938 700 l 1
 612.428710938 700 709.262695312 631 687.397460938 507 c 0
 665.709960938 384 557.1875 330 418.1875 330 c 1
 428.415039062 388 l 1
223.428710938 700 m 1
 293.428710938 700 l 1
 170 0 l 1
 100 0 l 1
 223.428710938 700 l 1
112.342773438 70 m 1
 412.342773438 70 l 1
 400 0 l 1
 100 0 l 1
 112.342773438 70 l 1
223.428710938 700 m 1
 483.428710938 700 l 1
 471.0859375 630 l 1
 211.0859375 630 l 1
 223.428710938 700 l 1
168.415039062 388 m 1
 468.415039062 388 l 1
 456.072265625 318 l 1
 156.072265625 318 l 1
 168.415039062 388 l 1
412.342773438 70 m 1
 505.342773438 70 591.750976562 95 609.383789062 195 c 0
 627.016601562 295 549.072265625 318 456.072265625 318 c 1
 466.123046875 375 l 1
 605.123046875 375 702.129882812 324 679.383789062 195 c 0
 656.637695312 66 539 0 400 0 c 1
 412.342773438 70 l 1
EndSplineSet
EndChar

StartChar: K
Encoding: 75 75 16
Width: 745
VWidth: 0
Flags: HMW
AnchorPoint: "ced" 665 0 basechar 0
AnchorPoint: "dot" 489.009 760 basechar 0
LayerCount: 2
Fore
SplineSet
371.823242188 413 m 5
 450.823242188 413 l 1
 720 0 l 1
 641 0 l 5
 371.823242188 413 l 5
708.428710938 700 m 1
 793.428710938 700 l 1
 206.5 207 l 1
 145.555664062 230 l 1
 708.428710938 700 l 1
223.428710938 700 m 1
 293.428710938 700 l 1
 170 0 l 1
 100 0 l 1
 223.428710938 700 l 1
EndSplineSet
EndChar

StartChar: R
Encoding: 82 82 17
Width: 718
VWidth: 0
Flags: HMW
AnchorPoint: "ced" 610 0 basechar 0
AnchorPoint: "dot" 474.009 760 basechar 0
LayerCount: 2
Fore
SplineSet
458.716796875 333 m 1
 556.716796875 333 636.23828125 387 652.108398438 477 c 0
 667.977539062 567 609.0859375 630 511.0859375 630 c 1
 523.428710938 700 l 1
 652.428710938 700 744.1484375 602 722.108398438 477 c 0
 700.243164062 353 575.374023438 263 446.374023438 263 c 1
 458.716796875 333 l 1
404.424804688 320 m 5
 489.424804688 320 l 1
 673 0 l 1
 588 0 l 5
 404.424804688 320 l 5
223.428710938 700 m 1
 293.428710938 700 l 1
 170 0 l 1
 100 0 l 1
 223.428710938 700 l 1
228.428710938 700 m 1
 523.428710938 700 l 1
 511.0859375 630 l 1
 216.0859375 630 l 1
 228.428710938 700 l 1
163.716796875 333 m 1
 458.716796875 333 l 1
 446.374023438 263 l 1
 151.374023438 263 l 1
 163.716796875 333 l 1
EndSplineSet
EndChar

StartChar: P
Encoding: 80 80 18
Width: 643
VWidth: 0
Flags: HMW
AnchorPoint: "ced" 140 0 basechar 0
AnchorPoint: "dot" 454.009 760 basechar 0
LayerCount: 2
Fore
SplineSet
418.716796875 333 m 5
 516.716796875 333 596.23828125 387 612.108398438 477 c 4
 627.977539062 567 569.0859375 630 471.0859375 630 c 5
 483.428710938 700 l 5
 612.428710938 700 704.1484375 602 682.108398438 477 c 4
 660.243164062 353 535.374023438 263 406.374023438 263 c 5
 418.716796875 333 l 5
223.428710938 700 m 1
 293.428710938 700 l 1
 170 0 l 1
 100 0 l 1
 223.428710938 700 l 1
228.428710938 700 m 1
 483.428710938 700 l 1
 471.0859375 630 l 1
 216.0859375 630 l 1
 228.428710938 700 l 1
163.716796875 333 m 1
 418.716796875 333 l 1
 406.374023438 263 l 1
 151.374023438 263 l 1
 163.716796875 333 l 1
EndSplineSet
EndChar

StartChar: Q
Encoding: 81 81 19
Width: 849
VWidth: 0
Flags: HMW
AnchorPoint: "ced" 425 0 basechar 0
AnchorPoint: "dot" 559.009 760 basechar 0
LayerCount: 2
Fore
SplineSet
201.71484375 350 m 0
 173.501953125 190 275.580078125 60 435.580078125 60 c 0
 595.580078125 60 743.501953125 190 771.71484375 350 c 0
 799.926757812 510 697.849609375 640 537.849609375 640 c 0
 377.849609375 640 229.926757812 510 201.71484375 350 c 0
739.004882812 -34 m 5
 518.260742188 234 l 5
 574.724609375 282 l 1
 795.64453125 15 l 1
 739.004882812 -34 l 5
131.71484375 350 m 0
 166.803710938 549 355.192382812 710 550.192382812 710 c 0
 745.192382812 710 876.803710938 549 841.71484375 350 c 0
 806.625 151 618.236328125 -10 423.236328125 -10 c 0
 228.236328125 -10 96.625 151 131.71484375 350 c 0
EndSplineSet
EndChar

StartChar: J
Encoding: 74 74 20
Width: 599
VWidth: 0
Flags: HMW
AnchorPoint: "ced" 265 0 basechar 0
AnchorPoint: "dot" 399.009 760 basechar 0
LayerCount: 2
Fore
SplineSet
479.844726562 260 m 1
 557.428710938 700 l 1
 622.428710938 700 l 1
 544.844726562 260 l 1
 479.844726562 260 l 1
479.844726562 260 m 5
 544.844726562 260 l 1
 515.045898438 91 402.236328125 -10 263.236328125 -10 c 0
 155.236328125 -10 80.9931640625 51 57.68359375 157 c 1
 118.973632812 187 l 1
 139.337890625 104 186.521484375 54 274.521484375 54 c 0
 371.521484375 54 457.098632812 131 479.844726562 260 c 5
EndSplineSet
EndChar

StartChar: S
Encoding: 83 83 21
Width: 625
VWidth: 0
Flags: HMW
AnchorPoint: "ced" 315 0 basechar 0
AnchorPoint: "dot" 469.009 760 basechar 0
LayerCount: 2
Fore
SplineSet
534.383789062 195 m 1
 599.383789062 195 l 1
 576.637695312 66 475.236328125 -10 326.236328125 -10 c 0
 197.236328125 -10 121.874023438 56 69.9248046875 113 c 1
 123.270507812 166 l 1
 163.51171875 122 229.698242188 55 337.698242188 55 c 0
 430.698242188 55 516.750976562 95 534.383789062 195 c 1
247.805664062 532 m 1
 182.924804688 527 l 1
 202.497070312 638 321.192382812 710 440.192382812 710 c 0
 539.192382812 710 614.844726562 674 657.67578125 622 c 1
 607.211914062 574 l 1
 569.969726562 618 496.73046875 645 438.73046875 645 c 0
 335.73046875 645 259.620117188 599 247.805664062 532 c 1
398.001953125 397 m 4
 521.08984375 376.821289062 623.1875 330 599.383789062 195 c 1
 534.383789062 195 l 1
 548.666015625 276 479.06640625 319.172851562 382.541015625 332 c 0
 255.107421875 348.934570312 162.646484375 412 182.924804688 527 c 1
 247.805664062 532 l 1
 232.818359375 447 294.94140625 413.895507812 398.001953125 397 c 4
EndSplineSet
EndChar

StartChar: M
Encoding: 77 77 22
Width: 932
VWidth: 0
Flags: HMW
AnchorPoint: "ced" 790 0 basechar 0
AnchorPoint: "dot" 604.009 760 basechar 0
LayerCount: 2
Fore
SplineSet
512.922851562 130 m 1
 464.922851562 130 l 1
 473.739257812 180 l 5
 521.739257812 180 l 5
 512.922851562 130 l 1
874.849609375 640 m 1
 895.428710938 700 l 1
 955.428710938 700 l 1
 951.90234375 680 l 1
 874.849609375 640 l 1
931.612304688 650 m 1
 512.922851562 130 l 1
 473.739257812 180 l 5
 895.428710938 700 l 1
 931.612304688 650 l 1
951.90234375 680 m 1
 832 0 l 1
 762 0 l 1
 874.849609375 640 l 1
 951.90234375 680 l 1
282.849609375 640 m 1
 219.90234375 680 l 1
 223.428710938 700 l 1
 283.428710938 700 l 1
 282.849609375 640 l 1
229.612304688 650 m 1
 283.428710938 700 l 1
 521.739257812 180 l 5
 464.922851562 130 l 1
 229.612304688 650 l 1
219.90234375 680 m 1
 282.849609375 640 l 1
 170 0 l 1
 100 0 l 1
 219.90234375 680 l 1
EndSplineSet
EndChar

StartChar: Y
Encoding: 89 89 23
Width: 680
VWidth: 0
Flags: HMW
AnchorPoint: "ced" 345 0 basechar 0
AnchorPoint: "dot" 471.009 760 basechar 0
LayerCount: 2
Fore
SplineSet
357.016601562 295 m 1
 427.016601562 295 l 1
 375 0 l 1
 305 0 l 1
 357.016601562 295 l 1
153.428710938 700 m 1
 233.428710938 700 l 1
 417.016601562 295 l 1
 373.262695312 217 l 1
 153.428710938 700 l 1
693.428710938 700 m 5
 773.428710938 700 l 1
 383.262695312 217 l 1
 367.016601562 295 l 5
 693.428710938 700 l 5
EndSplineSet
EndChar

StartChar: W
Encoding: 87 87 24
Width: 1065
VWidth: 0
Flags: HMW
AnchorPoint: "ced" 750 0 basechar 0
AnchorPoint: "dot" 664.009 760 basechar 0
LayerCount: 2
Fore
SplineSet
623.428710938 700 m 1
 688.428710938 700 l 1
 682.666015625 690 l 1
 625.666015625 690 l 1
 623.428710938 700 l 1
780 0 m 1
 720 0 l 1
 721.763671875 10 l 1
 781.763671875 10 l 1
 780 0 l 1
688.428710938 700 m 1
 781.763671875 10 l 1
 720 0 l 1
 625.666015625 690 l 1
 688.428710938 700 l 1
780 0 m 1
 721.763671875 10 l 1
 1073.42871094 700 l 1
 1143.42871094 700 l 1
 780 0 l 1
345 0 m 1
 285 0 l 1
 286.763671875 10 l 1
 346.763671875 10 l 1
 345 0 l 1
238.428710938 700 m 5
 346.763671875 10 l 1
 285 0 l 1
 168.428710938 700 l 1
 238.428710938 700 l 5
345 0 m 1
 286.763671875 10 l 1
 623.428710938 700 l 1
 682.666015625 690 l 1
 345 0 l 1
EndSplineSet
EndChar

StartChar: N
Encoding: 78 78 25
Width: 790
VWidth: 0
Flags: HMW
AnchorPoint: "ced" 650 0 basechar 0
AnchorPoint: "dot" 534.009 760 basechar 0
LayerCount: 2
Fore
SplineSet
690 0 m 1
 630 0 l 5
 634.231445312 24 l 5
 692.46875 14 l 1
 690 0 l 1
283.428710938 700 m 1
 279.90234375 680 l 1
 219.90234375 680 l 1
 223.428710938 700 l 1
 283.428710938 700 l 1
217.2578125 665 m 1
 283.428710938 700 l 1
 696.171875 35 l 1
 630 0 l 5
 217.2578125 665 l 1
743.428710938 700 m 5
 813.428710938 700 l 1
 690 0 l 1
 623.526367188 20 l 5
 743.428710938 700 l 5
223.428710938 700 m 1
 289.90234375 680 l 1
 170 0 l 1
 100 0 l 1
 223.428710938 700 l 1
EndSplineSet
EndChar

StartChar: X
Encoding: 88 88 26
Width: 750
VWidth: 0
Flags: HMW
AnchorPoint: "ced" 645 0 basechar 0
AnchorPoint: "dot" 508.009 760 basechar 0
LayerCount: 2
Fore
SplineSet
188.428710938 700 m 1
 273.428710938 700 l 1
 705 0 l 1
 620 0 l 5
 188.428710938 700 l 1
723.428710938 700 m 5
 808.428710938 700 l 1
 130 0 l 1
 45 0 l 1
 723.428710938 700 l 5
EndSplineSet
EndChar

StartChar: Z
Encoding: 90 90 27
Width: 680
VWidth: 0
Flags: HMW
AnchorPoint: "ced" 495 0 basechar 0
AnchorPoint: "dot" 469.009 760 basechar 0
LayerCount: 2
Fore
SplineSet
707.849609375 640 m 1
 697.849609375 640 l 1
 708.428710938 700 l 1
 718.428710938 700 l 1
 707.849609375 640 l 1
75.580078125 60 m 1
 85.580078125 60 l 1
 75 0 l 1
 65 0 l 1
 75.580078125 60 l 1
208.428710938 700 m 1
 708.428710938 700 l 1
 696.0859375 630 l 1
 196.0859375 630 l 1
 208.428710938 700 l 1
87.3427734375 70 m 1
 627.342773438 70 l 1
 615 0 l 1
 75 0 l 1
 87.3427734375 70 l 1
622.849609375 640 m 5
 707.849609375 640 l 1
 160.580078125 60 l 1
 75.580078125 60 l 1
 622.849609375 640 l 5
EndSplineSet
EndChar

StartChar: l
Encoding: 108 108 28
Width: 265
VWidth: 0
Flags: HMW
AnchorPoint: "ced" 133 0 basechar 0
AnchorPoint: "dot" 272.827 793 basechar 0
LayerCount: 2
Fore
SplineSet
228.71875 730 m 1
 293.71875 730 l 5
 165 0 l 5
 100 0 l 1
 228.71875 730 l 1
EndSplineSet
EndChar

StartChar: b
Encoding: 98 98 29
Width: 655
VWidth: 0
Flags: HMW
AnchorPoint: "ced" 356 0 basechar 0
AnchorPoint: "dot" 478.668 673 basechar 0
LayerCount: 2
Fore
SplineSet
195.844726562 260 m 4
 173.098632812 131 246.81640625 50 353.81640625 50 c 4
 460.81640625 50 558.098632812 131 580.844726562 260 c 4
 603.590820312 389 534.874023438 470 427.874023438 470 c 4
 320.874023438 470 218.590820312 389 195.844726562 260 c 4
160.844726562 260 m 4
 188.880859375 419 289.453125 530 448.453125 530 c 4
 577.453125 530 673.880859375 419 645.844726562 260 c 4
 617.80859375 101 482.236328125 -10 353.236328125 -10 c 4
 194.236328125 -10 132.80859375 101 160.844726562 260 c 4
213.71875 730 m 5
 278.71875 730 l 5
 150 0 l 5
 85 0 l 5
 213.71875 730 l 5
EndSplineSet
EndChar

StartChar: c
Encoding: 99 99 30
Width: 573
VWidth: 0
Flags: HMW
AnchorPoint: "ced" 325 0 basechar 0
AnchorPoint: "dot" 443.668 673 basechar 0
LayerCount: 2
Fore
SplineSet
165.844726562 260 m 4
 144.862304688 141 216.81640625 50 333.81640625 50 c 4
 405.81640625 50 468.98828125 85 514.627929688 134 c 5
 549.221679688 92 l 5
 490.9375 28 410.236328125 -10 323.236328125 -10 c 4
 174.236328125 -10 74.572265625 111 100.844726562 260 c 4
 127.118164062 409 269.453125 530 418.453125 530 c 4
 505.453125 530 571.576171875 491 607.467773438 428 c 5
 559.0625 386 l 5
 530.702148438 435 479.874023438 470 407.874023438 470 c 4
 290.874023438 470 186.828125 379 165.844726562 260 c 4
EndSplineSet
EndChar

StartChar: d
Encoding: 100 100 31
Width: 655
VWidth: 0
Flags: HMW
AnchorPoint: "ced" 300 0 basechar 0
AnchorPoint: "dot" 413.668 673 basechar 0
LayerCount: 2
Fore
SplineSet
550.844726562 260 m 4
 573.590820312 389 499.874023438 470 392.874023438 470 c 4
 285.874023438 470 188.590820312 389 165.844726562 260 c 4
 143.098632812 131 211.81640625 50 318.81640625 50 c 4
 425.81640625 50 528.098632812 131 550.844726562 260 c 4
585.844726562 260 m 4
 557.80859375 101 457.236328125 -10 298.236328125 -10 c 4
 169.236328125 -10 72.80859375 101 100.844726562 260 c 4
 128.880859375 419 264.453125 530 393.453125 530 c 4
 552.453125 530 613.880859375 419 585.844726562 260 c 4
698.71875 730 m 1
 570 0 l 1
 505 0 l 1
 633.71875 730 l 1
 698.71875 730 l 1
EndSplineSet
EndChar

StartChar: k
Encoding: 107 107 32
Width: 615
VWidth: 0
Flags: HMW
AnchorPoint: "ced" 535 0 basechar 0
AnchorPoint: "dot" 443.668 673 basechar 0
LayerCount: 2
Fore
SplineSet
318.311523438 291 m 5
 384.837890625 311 l 1
 590 0 l 1
 514 0 l 5
 318.311523438 291 l 5
575.690429688 520 m 1
 661.690429688 520 l 1
 169.395507812 110 l 1
 137.154296875 154 l 1
 575.690429688 520 l 1
213.71875 730 m 1
 278.71875 730 l 1
 150 0 l 1
 85 0 l 1
 213.71875 730 l 1
EndSplineSet
EndChar

StartChar: e
Encoding: 101 101 33
Width: 615
VWidth: 0
Flags: HMW
AnchorPoint: "ced" 320 0 basechar 0
AnchorPoint: "dot" 428.668 673 basechar 0
LayerCount: 2
Fore
SplineSet
610.844726562 260 m 1
 607.318359375 240 l 1
 542.318359375 240 l 1
 545.844726562 260 l 1
 610.844726562 260 l 1
542.318359375 240 m 1
 136.318359375 240 l 1
 146.369140625 297 l 1
 552.369140625 297 l 1
 542.318359375 240 l 1
545.844726562 260 m 1
 568.590820312 389 509.874023438 470 392.874023438 470 c 0
 275.874023438 470 188.590820312 389 165.844726562 260 c 1
 100.844726562 260 l 1
 128.880859375 419 264.453125 530 403.453125 530 c 0
 542.453125 530 638.880859375 419 610.844726562 260 c 1
 545.844726562 260 l 1
100.844726562 260 m 1
 165.844726562 260 l 1
 143.098632812 131 211.81640625 50 328.81640625 50 c 0
 402.81640625 50 473.98828125 85 519.627929688 134 c 5
 554.221679688 92 l 1
 495.9375 28 405.236328125 -10 318.236328125 -10 c 0
 169.236328125 -10 72.80859375 101 100.844726562 260 c 1
EndSplineSet
EndChar

StartChar: p
Encoding: 112 112 34
Width: 655
VWidth: 0
Flags: HMW
AnchorPoint: "ced" 355 0 basechar 0
AnchorPoint: "dot" 478.668 673 basechar 0
LayerCount: 2
Fore
SplineSet
195.844726562 260 m 0
 173.098632812 131 246.81640625 50 353.81640625 50 c 0
 460.81640625 50 558.098632812 131 580.844726562 260 c 0
 603.590820312 389 534.874023438 470 427.874023438 470 c 0
 320.874023438 470 218.590820312 389 195.844726562 260 c 0
160.844726562 260 m 0
 188.880859375 419 289.453125 530 448.453125 530 c 0
 577.453125 530 673.880859375 419 645.844726562 260 c 0
 617.80859375 101 482.236328125 -10 353.236328125 -10 c 0
 194.236328125 -10 132.80859375 101 160.844726562 260 c 0
49.734375 -200 m 5
 176.690429688 520 l 1
 241.690429688 520 l 1
 114.734375 -200 l 5
 49.734375 -200 l 5
EndSplineSet
EndChar

StartChar: q
Encoding: 113 113 35
Width: 655
VWidth: 0
Flags: HMW
AnchorPoint: "ced" 300 0 basechar 0
AnchorPoint: "dot" 413.668 673 basechar 0
LayerCount: 2
Fore
SplineSet
550.844726562 260 m 0
 573.590820312 389 499.874023438 470 392.874023438 470 c 0
 285.874023438 470 188.590820312 389 165.844726562 260 c 0
 143.098632812 131 211.81640625 50 318.81640625 50 c 0
 425.81640625 50 528.098632812 131 550.844726562 260 c 0
585.844726562 260 m 0
 557.80859375 101 457.236328125 -10 298.236328125 -10 c 0
 169.236328125 -10 72.80859375 101 100.844726562 260 c 0
 128.880859375 419 264.453125 530 393.453125 530 c 0
 552.453125 530 613.880859375 419 585.844726562 260 c 0
534.734375 -200 m 1
 469.734375 -200 l 1
 596.690429688 520 l 1
 661.690429688 520 l 1
 534.734375 -200 l 1
EndSplineSet
EndChar

StartChar: h
Encoding: 104 104 36
Width: 635
VWidth: 0
Flags: HMW
AnchorPoint: "ced" 510 0 basechar 0
AnchorPoint: "dot" 468.668 673 basechar 0
LayerCount: 2
Fore
SplineSet
607.8984375 300 m 1
 555 0 l 1
 490 0 l 1
 542.8984375 300 l 1
 607.8984375 300 l 1
542.8984375 300 m 1
 558.767578125 390 527.874023438 470 412.874023438 470 c 0
 304.874023438 470 218.767578125 390 199.37109375 280 c 1
 164.37109375 280 l 1
 185.354492188 399 279.453125 530 438.453125 530 c 0
 567.453125 530 630.64453125 429 607.8984375 300 c 1
 542.8984375 300 l 1
213.71875 730 m 1
 278.71875 730 l 1
 150 0 l 1
 85 0 l 1
 213.71875 730 l 1
EndSplineSet
EndChar

StartChar: n
Encoding: 110 110 37
Width: 635
VWidth: 0
Flags: HMW
AnchorPoint: "ced" 530 0 basechar 0
AnchorPoint: "dot" 448.668 673 basechar 0
LayerCount: 2
Fore
SplineSet
607.8984375 300 m 5
 555 0 l 5
 490 0 l 5
 542.8984375 300 l 5
 607.8984375 300 l 5
176.690429688 520 m 5
 241.690429688 520 l 5
 150 0 l 5
 85 0 l 5
 176.690429688 520 l 5
542.8984375 300 m 5
 558.767578125 390 527.874023438 470 412.874023438 470 c 4
 304.874023438 470 218.767578125 390 199.37109375 280 c 5
 164.37109375 280 l 5
 185.354492188 399 279.453125 530 438.453125 530 c 4
 567.453125 530 630.64453125 429 607.8984375 300 c 5
 542.8984375 300 l 5
EndSplineSet
EndChar

StartChar: m
Encoding: 109 109 38
Width: 900
VWidth: 0
Flags: HMW
AnchorPoint: "ced" 795 0 basechar 0
AnchorPoint: "dot" 568.668 673 basechar 0
LayerCount: 2
Fore
SplineSet
877.8984375 300 m 1
 825 0 l 1
 760 0 l 1
 812.8984375 300 l 1
 877.8984375 300 l 1
812.8984375 300 m 1
 828.767578125 390 818.754882812 475 713.754882812 475 c 0
 630.754882812 475 555.767578125 390 536.37109375 280 c 1
 501.37109375 280 l 1
 525.880859375 419 609.453125 530 743.453125 530 c 4
 867.453125 530 900.64453125 429 877.8984375 300 c 1
 812.8984375 300 l 1
539.8984375 300 m 1
 487 0 l 1
 423 0 l 1
 475.8984375 300 l 1
 539.8984375 300 l 1
176.690429688 520 m 1
 241.690429688 520 l 1
 150 0 l 1
 85 0 l 1
 176.690429688 520 l 1
475.8984375 300 m 1
 491.767578125 390 483.754882812 475 378.754882812 475 c 4
 295.754882812 475 218.767578125 390 199.37109375 280 c 1
 164.37109375 280 l 1
 188.880859375 419 274.453125 530 408.453125 530 c 4
 532.453125 530 562.64453125 429 539.8984375 300 c 1
 475.8984375 300 l 1
EndSplineSet
EndChar

StartChar: r
Encoding: 114 114 39
Width: 410
VWidth: 0
Flags: HMW
AnchorPoint: "ced" 120 0 basechar 0
AnchorPoint: "dot" 338.668 673 basechar 0
LayerCount: 2
Fore
SplineSet
176.690429688 520 m 1
 241.690429688 520 l 1
 150 0 l 1
 85 0 l 1
 176.690429688 520 l 1
461.110351562 460 m 1
 441.110351562 460 l 2
 317.110351562 460 217.00390625 380 197.608398438 270 c 1
 162.608398438 270 l 5
 188.880859375 419 292.690429688 520 471.690429688 520 c 1
 461.110351562 460 l 1
EndSplineSet
EndChar

StartChar: u
Encoding: 117 117 40
Width: 635
VWidth: 0
Flags: HMW
AnchorPoint: "ced" 285 0 basechar 0
AnchorPoint: "dot" 423.668 673 basechar 0
LayerCount: 2
Fore
SplineSet
550 0 m 1
 485 0 l 1
 576.690429688 520 l 1
 641.690429688 520 l 1
 550 0 l 1
183.791992188 220 m 1
 167.922851562 130 198.81640625 50 313.81640625 50 c 0
 421.81640625 50 507.922851562 130 527.318359375 240 c 1
 562.318359375 240 l 1
 541.3359375 121 447.236328125 -10 288.236328125 -10 c 0
 159.236328125 -10 96.0458984375 91 118.791992188 220 c 1
 183.791992188 220 l 1
118.791992188 220 m 1
 171.690429688 520 l 1
 236.690429688 520 l 1
 183.791992188 220 l 1
 118.791992188 220 l 1
EndSplineSet
EndChar

StartChar: g
Encoding: 103 103 41
Width: 655
VWidth: 0
Flags: HMW
AnchorPoint: "dot" 418.668 673 basechar 0
LayerCount: 2
Fore
SplineSet
550.844726562 260 m 0
 573.590820312 389 499.874023438 470 392.874023438 470 c 0
 285.874023438 470 188.590820312 389 165.844726562 260 c 0
 143.098632812 131 211.81640625 50 318.81640625 50 c 0
 425.81640625 50 528.098632812 131 550.844726562 260 c 0
585.844726562 260 m 0
 557.80859375 101 457.236328125 -10 298.236328125 -10 c 0
 169.236328125 -10 72.80859375 101 100.844726562 260 c 0
 128.880859375 419 264.453125 530 393.453125 530 c 0
 552.453125 530 613.880859375 419 585.844726562 260 c 0
294.788085938 -160 m 1
 284.208007812 -220 l 1
 147.208007812 -220 73.671875 -172 37.95703125 -108 c 1
 86.3623046875 -66 l 5
 119.427734375 -111 171.788085938 -160 294.788085938 -160 c 1
573.526367188 20 m 1
 508.526367188 20 l 1
 596.690429688 520 l 1
 661.690429688 520 l 1
 573.526367188 20 l 1
508.526367188 20 m 1
 573.526367188 20 l 1
 549.016601562 -119 413.208007812 -220 284.208007812 -220 c 1
 294.788085938 -160 l 1
 381.788085938 -160 489.306640625 -89 508.526367188 20 c 1
EndSplineSet
EndChar

StartChar: i
Encoding: 105 105 42
Width: 255
VWidth: 0
Flags: HMW
AnchorPoint: "ced" 125 0 basechar 0
LayerCount: 2
Fore
SplineSet
201.018554688 692 m 4
 205.602539062 718 231.482421875 740 257.482421875 740 c 4
 283.482421875 740 301.602539062 718 297.018554688 692 c 4
 292.43359375 666 266.5546875 644 240.5546875 644 c 4
 214.5546875 644 196.43359375 666 201.018554688 692 c 4
186.690429688 520 m 1
 251.690429688 520 l 1
 160 0 l 1
 95 0 l 1
 186.690429688 520 l 1
EndSplineSet
EndChar

StartChar: t
Encoding: 116 116 43
Width: 420
VWidth: 0
Flags: HMW
AnchorPoint: "ced" 257 0 basechar 0
AnchorPoint: "dot" 403.668 673 basechar 0
LayerCount: 2
Fore
SplineSet
131.690429688 520 m 1
 461.690429688 520 l 1
 451.110351562 460 l 1
 121.110351562 460 l 1
 131.690429688 520 l 1
209.685546875 140 m 1
 144.685546875 140 l 1
 238.66796875 673 l 1
 303.66796875 673 l 1
 209.685546875 140 l 1
272.81640625 50 m 1
 321.81640625 50 358.047851562 74 378.3984375 93 c 1
 399.405273438 42 l 1
 367.291992188 13 318.236328125 -10 256.236328125 -10 c 1
 272.81640625 50 l 1
209.685546875 140 m 1
 200.869140625 90 214.81640625 50 272.81640625 50 c 1
 256.236328125 -10 l 5
 157.236328125 -10 130.755859375 61 144.685546875 140 c 1
 209.685546875 140 l 1
EndSplineSet
EndChar

StartChar: a
Encoding: 97 97 44
Width: 580
VWidth: 0
Flags: HMW
AnchorPoint: "ced" 467 0 basechar 0
AnchorPoint: "ring" 403.668 673 basechar 0
AnchorPoint: "dot" 403.668 673 basechar 0
LayerCount: 2
Fore
SplineSet
375.013671875 312 m 1
 525.013671875 312 l 1
 516.374023438 263 l 1
 396.374023438 263 l 1
 375.013671875 312 l 1
498.1875 330 m 1
 514.057617188 420 487.754882812 475 371.754882812 475 c 1
 387.453125 530 l 1
 530.453125 530 584.170898438 449 563.1875 330 c 1
 498.1875 330 l 1
371.754882812 475 m 1
 289.754882812 475 241.11328125 443 185.059570312 403 c 5
 159.346679688 450 l 1
 224.987304688 499 285.453125 530 387.453125 530 c 1
 371.754882812 475 l 1
498.1875 330 m 1
 563.1875 330 l 1
 505 0 l 1
 440 0 l 1
 498.1875 330 l 1
135.331054688 155 m 1
 123.340820312 87 165.81640625 50 278.81640625 50 c 0
 366.81640625 50 457.6328125 100 471.739257812 180 c 1
 506.739257812 180 l 1
 487.51953125 71 387.236328125 -10 238.236328125 -10 c 0
 139.236328125 -10 50.2294921875 41 71.2119140625 160 c 1
 135.331054688 155 l 1
375.013671875 312 m 1
 396.374023438 263 l 1
 247.374023438 263 152.08203125 250 135.331054688 155 c 1
 71.2119140625 160 l 1
 95.0166015625 295 238.013671875 312 375.013671875 312 c 1
EndSplineSet
EndChar

StartChar: j
Encoding: 106 106 45
Width: 255
VWidth: 0
Flags: HMW
LayerCount: 2
Fore
SplineSet
205.018554688 692 m 0
 209.602539062 718 235.482421875 740 261.482421875 740 c 0
 287.482421875 740 305.602539062 718 301.018554688 692 c 0
 296.43359375 666 270.5546875 644 244.5546875 644 c 0
 218.5546875 644 200.43359375 666 205.018554688 692 c 0
190.690429688 520 m 1
 255.690429688 520 l 1
 153.419921875 -60 l 1
 88.419921875 -60 l 1
 190.690429688 520 l 1
-0.44921875 -150 m 1
 -5.0283203125 -210 l 1
 -62.0283203125 -210 -108.854492188 -192 -129.859375 -158 c 1
 -92.04296875 -108 l 1
 -78.3935546875 -127 -43.44921875 -150 -0.44921875 -150 c 1
88.419921875 -60 m 1
 153.419921875 -60 l 1
 139.490234375 -139 83.9716796875 -210 -5.0283203125 -210 c 1
 -0.44921875 -150 l 1
 46.55078125 -150 79.6044921875 -110 88.419921875 -60 c 1
EndSplineSet
EndChar

StartChar: s
Encoding: 115 115 46
Width: 520
VWidth: 0
Flags: HMW
AnchorPoint: "ced" 265 0 basechar 0
AnchorPoint: "dot" 383.668 673 basechar 0
LayerCount: 2
Fore
SplineSet
436.44921875 150 m 1
 501.44921875 150 l 1
 487.51953125 71 412.236328125 -10 273.236328125 -10 c 0
 164.236328125 -10 106.524414062 37 63.337890625 104 c 1
 119.096679688 148 l 1
 156.280273438 98 195.81640625 50 283.81640625 50 c 0
 366.81640625 50 424.106445312 80 436.44921875 150 c 1
203.415039062 388 m 1
 138.415039062 388 l 1
 151.815429688 464 239.453125 530 348.453125 530 c 0
 457.453125 530 503.458007812 496 536.994140625 448 c 1
 486.53125 400 l 1
 460.172851562 432 425.874023438 470 337.874023438 470 c 0
 249.874023438 470 210.8203125 430 203.415039062 388 c 1
333.250976562 302 m 0
 446.900390625 283 520.844726562 260 501.44921875 150 c 1
 436.44921875 150 l 1
 447.028320312 210 403.579101562 226.76171875 297.670898438 242 c 0
 196.75390625 256.520507812 121.6640625 293 138.415039062 388 c 1
 203.415039062 388 l 1
 194.598632812 338 238.329101562 317.869140625 333.250976562 302 c 0
EndSplineSet
EndChar

StartChar: v
Encoding: 118 118 47
Width: 590
VWidth: 0
Flags: HMW
AnchorPoint: "ced" 297 0 basechar 0
AnchorPoint: "dot" 411.668 673 basechar 0
LayerCount: 2
Fore
SplineSet
335 0 m 1
 255 0 l 1
 255.881835938 5 l 1
 335.881835938 5 l 1
 335 0 l 1
270.881835938 5 m 5
 576.690429688 520 l 5
 646.690429688 520 l 1
 335 0 l 1
 270.881835938 5 l 5
126.690429688 520 m 1
 196.690429688 520 l 1
 320.881835938 5 l 1
 255 0 l 1
 126.690429688 520 l 1
EndSplineSet
EndChar

StartChar: f
Encoding: 102 102 48
Width: 375
VWidth: 0
Flags: HMW
AnchorPoint: "ced" 155 0 basechar 0
LayerCount: 2
Fore
SplineSet
136.690429688 520 m 1
 439.690429688 520 l 1
 429.110351562 460 l 1
 126.110351562 460 l 1
 136.690429688 520 l 1
294.033203125 590 m 1
 190 0 l 1
 125 0 l 1
 229.033203125 590 l 1
 294.033203125 590 l 1
392.90234375 680 m 1
 397.482421875 740 l 1
 459.482421875 740 495.602539062 718 516.3125 688 c 1
 479.672851562 639 l 1
 464.375976562 660 440.90234375 680 392.90234375 680 c 1
294.033203125 590 m 1
 229.033203125 590 l 1
 242.962890625 669 308.482421875 740 397.482421875 740 c 1
 392.90234375 680 l 1
 327.90234375 680 302.672851562 639 294.033203125 590 c 1
EndSplineSet
Substitution2: "fi-1" fi
EndChar

StartChar: y
Encoding: 121 121 49
Width: 579
VWidth: 0
Flags: HMW
AnchorPoint: "dot" 413.668 673 basechar 0
LayerCount: 2
Fore
SplineSet
130.690429688 520 m 1
 200.690429688 520 l 1
 347.58984375 -8 l 1
 281.708007812 -13 l 1
 130.690429688 520 l 1
142.55078125 -150 m 5
 131.971679688 -210 l 1
 74.9716796875 -210 29.5556640625 -184 8.55078125 -150 c 1
 47.5439453125 -99 l 1
 61.193359375 -118 91.55078125 -150 142.55078125 -150 c 5
253.419921875 -60 m 2
 570.690429688 520 l 1
 635.690429688 520 l 1
 318.419921875 -60 l 2
 274.900390625 -139.55859375 220.971679688 -210 131.971679688 -210 c 1
 142.55078125 -150 l 5
 200.55078125 -150 231.51171875 -100.05078125 253.419921875 -60 c 2
EndSplineSet
EndChar

StartChar: w
Encoding: 119 119 50
Width: 795
VWidth: 0
Flags: HMW
AnchorPoint: "ced" 565 0 basechar 0
AnchorPoint: "dot" 516.668 673 basechar 0
LayerCount: 2
Fore
SplineSet
471.690429688 520 m 1
 506.690429688 520 l 1
 497.874023438 470 l 1
 462.874023438 470 l 1
 471.690429688 520 l 1
605 0 m 1
 555 0 l 1
 561.171875 35 l 1
 609.408203125 25 l 1
 605 0 l 1
561.171875 35 m 1
 776.690429688 520 l 1
 846.690429688 520 l 1
 605 0 l 1
 561.171875 35 l 1
457.874023438 470 m 1
 506.690429688 520 l 1
 609.408203125 25 l 1
 555 0 l 1
 457.874023438 470 l 1
240 0 m 1
 190 0 l 1
 194.408203125 25 l 1
 246.171875 35 l 1
 240 0 l 1
194.408203125 25 m 1
 471.690429688 520 l 1
 502.874023438 470 l 1
 240 0 l 1
 194.408203125 25 l 1
131.690429688 520 m 1
 201.690429688 520 l 1
 246.171875 35 l 1
 190 0 l 1
 131.690429688 520 l 1
EndSplineSet
EndChar

StartChar: x
Encoding: 120 120 51
Width: 615
VWidth: 0
Flags: HMW
AnchorPoint: "ced" 515 0 basechar 0
AnchorPoint: "dot" 423.668 673 basechar 0
LayerCount: 2
Fore
SplineSet
40 0 m 1
 561.690429688 520 l 1
 646.690429688 520 l 1
 125 0 l 1
 40 0 l 1
151.690429688 520 m 1
 236.690429688 520 l 1
 575 0 l 1
 490 0 l 1
 151.690429688 520 l 1
EndSplineSet
EndChar

StartChar: z
Encoding: 122 122 52
Width: 570
VWidth: 0
Flags: HMW
AnchorPoint: "ced" 445 0 basechar 0
AnchorPoint: "dot" 408.668 673 basechar 0
LayerCount: 2
Fore
SplineSet
63.81640625 50 m 1
 83.81640625 50 l 1
 75 0 l 1
 55 0 l 1
 63.81640625 50 l 1
85.580078125 60 m 1
 525.580078125 60 l 1
 515 0 l 1
 75 0 l 1
 85.580078125 60 l 1
576.690429688 520 m 1
 596.690429688 520 l 1
 587.874023438 470 l 1
 567.874023438 470 l 1
 576.690429688 520 l 1
166.690429688 520 m 1
 576.690429688 520 l 1
 566.110351562 460 l 1
 156.110351562 460 l 1
 166.690429688 520 l 1
507.874023438 470 m 1
 587.874023438 470 l 1
 143.81640625 50 l 5
 63.81640625 50 l 1
 507.874023438 470 l 1
EndSplineSet
EndChar

StartChar: zero
Encoding: 48 48 53
Width: 600
VWidth: 0
Flags: HMW
LayerCount: 2
Fore
SplineSet
146.71484375 350 m 0
 119.03125 193 178.580078125 60 310.580078125 60 c 4
 442.580078125 60 549.03125 193 576.71484375 350 c 0
 604.397460938 507 544.849609375 640 412.849609375 640 c 0
 280.849609375 640 174.397460938 507 146.71484375 350 c 0
76.71484375 350 m 0
 111.803710938 549 250.192382812 710 425.192382812 710 c 0
 600.192382812 710 681.803710938 549 646.71484375 350 c 0
 611.625 151 473.236328125 -10 298.236328125 -10 c 0
 123.236328125 -10 41.625 151 76.71484375 350 c 0
EndSplineSet
EndChar

StartChar: one
Encoding: 49 49 54
Width: 600
VWidth: 0
Flags: HMW
LayerCount: 2
Fore
SplineSet
503.428710938 700 m 1
 499.197265625 676 l 1
 439.197265625 676 l 1
 443.428710938 700 l 1
 503.428710938 700 l 1
443.428710938 700 m 1
 467.377929688 643 l 5
 244.456054688 513 l 5
 220.506835938 570 l 1
 443.428710938 700 l 1
431.666015625 690 m 1
 503.428710938 700 l 1
 380 0 l 1
 310 0 l 1
 431.666015625 690 l 1
EndSplineSet
EndChar

StartChar: six
Encoding: 54 54 55
Width: 600
VWidth: 0
Flags: HMW
LayerCount: 2
Fore
SplineSet
148.791992188 220 m 1
 113.791992188 220 l 1
 136.538085938 349 259.465820312 445 408.465820312 445 c 1
 368.767578125 390 l 1
 266.767578125 390 166.424804688 320 148.791992188 220 c 1
148.791992188 220 m 0
 131.159179688 120 206.81640625 50 308.81640625 50 c 0
 420.81640625 50 511.159179688 120 528.791992188 220 c 0
 546.424804688 320 480.767578125 390 368.767578125 390 c 1
 408.465820312 445 l 1
 537.465820312 445 611.538085938 349 588.791992188 220 c 0
 566.045898438 91 447.236328125 -10 298.236328125 -10 c 0
 149.236328125 -10 66.0458984375 91 88.7919921875 220 c 0
 98.8896484375 277.265625 131.625 327.206054688 174.475585938 377 c 2
 452.428710938 700 l 1
 536.428710938 700 l 1
 223.560546875 351.75390625 l 1
 233.044921875 384.909179688 l 1
 189.397460938 355.858398438 157.813476562 271.161132812 148.791992188 220 c 0
EndSplineSet
EndChar

StartChar: period
Encoding: 46 46 56
Width: 230
VWidth: 0
Flags: HMW
LayerCount: 2
Fore
SplineSet
61 45 m 4
 61 75 85 100 115 100 c 4
 145 100 169 75 169 45 c 4
 169 15 145 -10 115 -10 c 4
 85 -10 61 15 61 45 c 4
EndSplineSet
EndChar

StartChar: comma
Encoding: 44 44 58
Width: 254
VWidth: 0
Flags: HMW
LayerCount: 2
Fore
SplineSet
88.9345703125 45 m 0
 94.224609375 75 122.6328125 100 154.6328125 100 c 4
 184.6328125 100 207.106445312 80 200.934570312 45 c 0
 198.536132812 31.3974609375 191.276367188 18.9521484375 182.069335938 6.7744140625 c 2
 77.0771484375 -130 l 1
 42.0771484375 -130 l 1
 118.473632812 -7.7958984375 l 1
 97.123046875 -1.0654296875 84.57421875 20.2685546875 88.9345703125 45 c 0
EndSplineSet
EndChar

StartChar: two
Encoding: 50 50 60
Width: 600
VWidth: 0
Flags: HMW
LayerCount: 2
Fore
SplineSet
59.6982421875 55 m 1
 79.6982421875 55 l 1
 70 0 l 1
 50 0 l 1
 59.6982421875 55 l 1
543.984375 516 m 5
 556.151367188 585 510.73046875 645 413.73046875 645 c 0
 314.73046875 645 244.26953125 580 194.634765625 497 c 1
 142.21875 523 l 1
 202.91015625 629 307.192382812 710 425.192382812 710 c 0
 554.192382812 710 628.44140625 615 610.984375 516 c 1
 543.984375 516 l 5
70 0 m 1
 81.4609375 65 l 1
 561.4609375 65 l 1
 550 0 l 1
 70 0 l 1
403.963867188 255 m 2
 149.698242188 55 l 1
 59.6982421875 55 l 1
 365.8984375 300 l 2
 478.006835938 388.848632812 531.465820312 445 543.984375 516 c 5
 610.984375 516 l 1
 591.588867188 406 523.575195312 348.953125 403.963867188 255 c 2
EndSplineSet
EndChar

StartChar: three
Encoding: 51 51 62
Width: 600
VWidth: 0
Flags: HMW
LayerCount: 2
Fore
SplineSet
317.709960938 384 m 5
 494.709960938 384 612.94921875 357 584.736328125 197 c 4
 560.05078125 57 425.236328125 -10 298.236328125 -10 c 0
 208.236328125 -10 118.46875 14 67.4560546875 99 c 1
 122.390625 144 l 1
 153.693359375 89 231.521484375 54 309.521484375 54 c 4
 402.521484375 54 503.690429688 106 519.736328125 197 c 4
 537.192382812 296 462.069335938 335 309.069335938 335 c 5
 317.709960938 384 l 5
181.1484375 602 m 1
 240.375976562 660 311.192382812 710 425.192382812 710 c 0
 559.192382812 710 630.91015625 629 613.453125 530 c 4
 590.70703125 401 485.71484375 350 311.71484375 350 c 1
 320.53125 400 l 1
 450.53125 400 534.700195312 452 546.690429688 520 c 0
 560.443359375 598 513.73046875 645 413.73046875 645 c 0
 330.73046875 645 269.677734375 605 221.213867188 557 c 1
 181.1484375 602 l 1
EndSplineSet
EndChar

StartChar: eight
Encoding: 56 56 63
Width: 600
VWidth: 0
Flags: HMW
LayerCount: 2
Fore
SplineSet
236.690429688 520 m 0
 222.936523438 442 289.649414062 395 369.649414062 395 c 0
 459.649414062 395 532.936523438 442 546.690429688 520 c 0
 560.443359375 598 503.73046875 645 413.73046875 645 c 0
 323.73046875 645 250.443359375 598 236.690429688 520 c 0
173.453125 530 m 0
 190.91015625 629 301.192382812 710 425.192382812 710 c 0
 549.192382812 710 630.91015625 629 613.453125 530 c 0
 592.470703125 411 485.71484375 350 361.71484375 350 c 0
 237.71484375 350 152.470703125 411 173.453125 530 c 0
82.9736328125 187 m 0
 107.659179688 327 230.709960938 384 367.709960938 384 c 0
 504.709960938 384 607.659179688 327 582.973632812 187 c 0
 561.813476562 67 435.236328125 -10 298.236328125 -10 c 0
 161.236328125 -10 61.8134765625 67 82.9736328125 187 c 0
149.736328125 197 m 0
 132.280273438 98 206.521484375 54 309.521484375 54 c 0
 412.521484375 54 502.280273438 98 519.736328125 197 c 0
 537.192382812 296 462.951171875 340 359.951171875 340 c 0
 256.951171875 340 167.192382812 296 149.736328125 197 c 0
EndSplineSet
EndChar

StartChar: four
Encoding: 52 52 64
Width: 600
VWidth: 0
Flags: HMW
LayerCount: 2
Fore
SplineSet
75.265625 200 m 1
 95.265625 200 l 1
 85.5673828125 145 l 1
 65.5673828125 145 l 1
 75.265625 200 l 1
97.0283203125 210 m 1
 587.028320312 210 l 1
 575.567382812 145 l 1
 85.5673828125 145 l 1
 97.0283203125 210 l 1
593.428710938 700 m 1
 589.197265625 676 l 1
 514.197265625 676 l 1
 518.428710938 700 l 1
 593.428710938 700 l 1
518.428710938 700 m 1
 575.725585938 679 l 5
 150.265625 200 l 1
 75.265625 200 l 1
 518.428710938 700 l 1
524.90234375 680 m 1
 593.428710938 700 l 1
 470 0 l 1
 405 0 l 1
 524.90234375 680 l 1
EndSplineSet
EndChar

StartChar: five
Encoding: 53 53 65
Width: 600
VWidth: 0
Flags: HMW
LayerCount: 2
Fore
SplineSet
124.837890625 311 m 1
 141.008789062 346 l 1
 176.008789062 346 l 1
 169.837890625 311 l 1
 124.837890625 311 l 1
400.228515625 455 m 1
 527.228515625 455 613.477539062 360 588.791992188 220 c 0
 562.342773438 70 425.236328125 -10 298.236328125 -10 c 0
 208.236328125 -10 118.46875 14 67.4560546875 99 c 1
 121.744140625 146 l 1
 153.045898438 91 226.874023438 56 309.874023438 56 c 0
 402.874023438 56 504.572265625 111 523.791992188 220 c 4
 541.248046875 319 491.767578125 390 368.767578125 390 c 5
 400.228515625 455 l 1
124.837890625 311 m 1
 253.428710938 700 l 1
 313.428710938 700 l 1
 200.127929688 341 l 1
 124.837890625 311 l 1
253.428710938 700 m 1
 633.428710938 700 l 1
 621.967773438 635 l 1
 241.967773438 635 l 1
 253.428710938 700 l 1
368.767578125 390 m 5
 281.767578125 390 218.477539062 360 169.837890625 311 c 1
 154.837890625 311 l 1
 200.53125 400 261.228515625 455 400.228515625 455 c 1
 368.767578125 390 l 5
EndSplineSet
EndChar

StartChar: seven
Encoding: 55 55 66
Width: 600
VWidth: 0
Flags: HMW
LayerCount: 2
Fore
SplineSet
665.612304688 650 m 1
 241 0 l 1
 170 0 l 5
 594.612304688 650 l 5
 665.612304688 650 l 1
653.428710938 700 m 1
 674.428710938 700 l 1
 665.612304688 650 l 1
 644.612304688 650 l 1
 653.428710938 700 l 1
173.428710938 700 m 1
 653.428710938 700 l 1
 641.967773438 635 l 1
 161.967773438 635 l 1
 173.428710938 700 l 1
EndSplineSet
EndChar

StartChar: exclam
Encoding: 33 33 67
Width: 230
VWidth: 0
Flags: HMW
LayerCount: 2
Fore
SplineSet
162.400390625 490 m 1
 240.400390625 490 l 1
 176.08203125 250 l 5
 142.08203125 250 l 1
 162.400390625 490 l 1
204.71875 730 m 1
 282.71875 730 l 1
 240.400390625 490 l 1
 162.400390625 490 l 1
 204.71875 730 l 1
EndSplineSet
Refer: 56 46 N 1 0 0.176327 1 0 0 2
EndChar

StartChar: quotesingle
Encoding: 39 39 69
Width: 170
VWidth: 0
Flags: HMW
LayerCount: 2
Fore
SplineSet
156.489257812 689 m 4
 161.779296875 719 185.482421875 740 215.482421875 740 c 0
 245.482421875 740 261.779296875 719 256.489257812 689 c 4
 255.430664062 682.99609375 253.541992188 677.501953125 251.60546875 671.750976562 c 6
 186.63671875 480 l 1
 152.63671875 480 l 1
 155.291015625 671.750976562 l 6
 155.37890625 677.344726562 155.430664062 682.99609375 156.489257812 689 c 4
EndSplineSet
EndChar

StartChar: numbersign
Encoding: 35 35 70
Width: 810
VWidth: 0
Flags: HMW
LayerCount: 2
Fore
SplineSet
750.555664062 230 m 5
 740.857421875 175 l 1
 90.857421875 175 l 1
 100.555664062 230 l 5
 750.555664062 230 l 5
842.571289062 525 m 1
 832.874023438 470 l 1
 182.874023438 470 l 1
 192.571289062 525 l 1
 842.571289062 525 l 1
698.428710938 700 m 1
 758.428710938 700 l 1
 515 0 l 1
 455 0 l 1
 698.428710938 700 l 1
418.428710938 700 m 1
 478.428710938 700 l 1
 235 0 l 1
 175 0 l 1
 418.428710938 700 l 1
EndSplineSet
EndChar

StartChar: percent
Encoding: 37 37 71
Width: 940
VWidth: 0
Flags: HMW
LayerCount: 2
Fore
SplineSet
611.739257812 180 m 0
 597.6328125 100 646.171875 35 726.171875 35 c 0
 806.171875 35 877.6328125 100 891.739257812 180 c 0
 905.844726562 260 857.306640625 325 777.306640625 325 c 0
 697.306640625 325 625.844726562 260 611.739257812 180 c 0
176.979492188 550 m 0
 162.874023438 470 211.412109375 405 291.412109375 405 c 0
 371.412109375 405 442.874023438 470 456.979492188 550 c 0
 471.0859375 630 422.546875 695 342.546875 695 c 0
 262.546875 695 191.0859375 630 176.979492188 550 c 0
126.979492188 550 m 0
 145.494140625 655 245.482421875 740 350.482421875 740 c 0
 455.482421875 740 525.494140625 655 506.979492188 550 c 0
 488.465820312 445 388.477539062 360 283.477539062 360 c 0
 178.477539062 360 108.465820312 445 126.979492188 550 c 0
561.739257812 180 m 0
 580.252929688 285 680.241210938 370 785.241210938 370 c 0
 890.241210938 370 960.252929688 285 941.739257812 180 c 0
 923.224609375 75 823.236328125 -10 718.236328125 -10 c 0
 613.236328125 -10 543.224609375 75 561.739257812 180 c 0
838.71875 730 m 1
 898.71875 730 l 1
 230 0 l 1
 170 0 l 1
 838.71875 730 l 1
EndSplineSet
EndChar

StartChar: dollar
Encoding: 36 36 72
Width: 600
VWidth: 0
Flags: HMW
LayerCount: 2
Fore
SplineSet
431 780 m 5
 481 780 l 5
 341 -80 l 1
 291 -80 l 1
 431 780 l 5
EndSplineSet
Refer: 21 83 N 1 0 0 1 -10 0 2
EndChar

StartChar: asterisk
Encoding: 42 42 73
Width: 324
VWidth: 0
Flags: HMW
LayerCount: 2
Fore
SplineSet
128.047851562 488 m 5
 114.04296875 522 l 5
 400.4921875 672 l 5
 414.497070312 638 l 5
 128.047851562 488 l 5
134.497070312 638 m 5
 160.4921875 672 l 5
 394.04296875 522 l 5
 368.047851562 488 l 5
 134.497070312 638 l 5
270.71875 730 m 5
 310.71875 730 l 5
 257.8203125 430 l 5
 217.8203125 430 l 5
 270.71875 730 l 5
EndSplineSet
EndChar

StartChar: slash
Encoding: 47 47 74
Width: 430
VWidth: 0
Flags: HMW
LayerCount: 2
Fore
SplineSet
537.53515625 780 m 1
 587.53515625 780 l 1
 15.8935546875 -80 l 5
 -34.1064453125 -80 l 1
 537.53515625 780 l 1
EndSplineSet
EndChar

StartChar: ampersand
Encoding: 38 38 75
Width: 715
VWidth: 0
Flags: HMW
LayerCount: 2
Fore
SplineSet
372.885742188 385 m 0
 453.34375 405.8046875 536.110351562 460 548.453125 530 c 1
 608.453125 530 l 1
 591.702148438 435 492.271484375 367.01171875 395.833007812 345 c 0
 294.004882812 321.758789062 181.311523438 291 163.501953125 190 c 1
 103.501953125 190 l 1
 128.1875 330 262.204101562 356.379882812 372.885742188 385 c 0
308.453125 530 m 1
 248.453125 530 l 1
 267.672851562 639 351.192382812 710 460.192382812 710 c 0
 569.192382812 710 627.672851562 639 608.453125 530 c 1
 548.453125 530 l 1
 562.3828125 609 515.73046875 645 448.73046875 645 c 0
 381.73046875 645 322.3828125 609 308.453125 530 c 1
352.311523438 291 m 2
 278.116210938 392.038085938 232.583984375 440 248.453125 530 c 1
 308.453125 530 l 1
 294.170898438 449 336.34765625 421.572265625 405.482421875 326 c 2
 665 0 l 1
 585 0 l 1
 352.311523438 291 l 2
648.1328125 307 m 5
 700.077148438 284 l 1
 640.27734375 115 487.236328125 -10 318.236328125 -10 c 0
 169.236328125 -10 82.51953125 71 103.501953125 190 c 1
 163.501953125 190 l 1
 149.572265625 111 221.81640625 50 338.81640625 50 c 0
 465.81640625 50 578.333007812 138 648.1328125 307 c 5
EndSplineSet
EndChar

StartChar: parenleft
Encoding: 40 40 76
Width: 275
VWidth: 0
Flags: HMW
LayerCount: 2
Fore
SplineSet
345.482421875 740 m 1
 381.955078125 720 l 5
 156.110351562 460 87.3427734375 70 221.498046875 -190 c 5
 177.971679688 -210 l 1
 12.6328125 100 70.8203125 430 345.482421875 740 c 1
EndSplineSet
EndChar

StartChar: hyphen
Encoding: 45 45 78
Width: 430
VWidth: 0
Flags: HMW
LayerCount: 2
Fore
SplineSet
122.306640625 325 m 5
 422.306640625 325 l 5
 412.608398438 270 l 1
 112.608398438 270 l 1
 122.306640625 325 l 5
EndSplineSet
EndChar

StartChar: plus
Encoding: 43 43 79
Width: 510
VWidth: 0
Flags: HMW
LayerCount: 2
Fore
SplineSet
388.856445312 589 m 1
 308.627929688 134 l 1
 248.627929688 134 l 1
 328.856445312 589 l 1
 388.856445312 589 l 1
98.5908203125 389 m 1
 548.590820312 389 l 1
 538.893554688 334 l 5
 88.8935546875 334 l 5
 98.5908203125 389 l 1
EndSplineSet
EndChar

StartChar: equal
Encoding: 61 61 80
Width: 510
VWidth: 0
Flags: HMW
LayerCount: 2
Fore
SplineSet
76.7265625 265 m 1
 526.7265625 265 l 1
 517.028320312 210 l 1
 67.0283203125 210 l 1
 76.7265625 265 l 1
118.163085938 500 m 1
 568.163085938 500 l 1
 558.465820312 445 l 1
 108.465820312 445 l 1
 118.163085938 500 l 1
EndSplineSet
EndChar

StartChar: backslash
Encoding: 92 92 81
Width: 430
VWidth: 0
Flags: HMW
LayerCount: 2
Fore
SplineSet
167.53515625 780 m 1
 435.893554688 -80 l 1
 385.893554688 -80 l 5
 117.53515625 780 l 1
 167.53515625 780 l 1
EndSplineSet
EndChar

StartChar: less
Encoding: 60 60 82
Width: 510
VWidth: 0
Flags: HMW
LayerCount: 2
Fore
SplineSet
99.6494140625 395 m 5
 514.383789062 195 l 5
 501.159179688 120 l 5
 86.4248046875 320 l 5
 99.6494140625 395 l 5
99.6494140625 395 m 5
 584.915039062 595 l 5
 571.690429688 520 l 5
 86.4248046875 320 l 5
 99.6494140625 395 l 5
EndSplineSet
EndChar

StartChar: question
Encoding: 63 63 84
Width: 555
VWidth: 0
Flags: HMW
LayerCount: 2
Fore
SplineSet
412.87890625 436 m 0
 473.551757812 464.341796875 522.10546875 494 533.038085938 556 c 1
 598.038085938 556 l 1
 581.287109375 461 522.500976562 421.75 437.709960938 384 c 0
 373.940429688 355.609375 343.364257812 331 329.08203125 250 c 1
 269.08203125 250 l 1
 275.53125 400 337.456054688 400.768554688 412.87890625 436 c 0
533.038085938 556 m 1
 545.204101562 625 501.020507812 675 404.020507812 675 c 0
 305.020507812 675 242.8515625 623 196.743164062 560 c 1
 144.561523438 593 l 1
 201.725585938 679 292.482421875 740 415.482421875 740 c 0
 549.482421875 740 615.494140625 655 598.038085938 556 c 1
 533.038085938 556 l 1
EndSplineSet
Refer: 56 46 N 1 0 0.176327 1 145 0 2
EndChar

StartChar: at
Encoding: 64 64 85
Width: 1050
VWidth: 0
Flags: HMW
LayerCount: 2
Fore
SplineSet
765.844726562 260 m 0
 788.590820312 389 714.874023438 470 607.874023438 470 c 0
 500.874023438 470 403.590820312 389 380.844726562 260 c 0
 358.098632812 131 426.81640625 50 533.81640625 50 c 0
 640.81640625 50 743.098632812 131 765.844726562 260 c 0
800.844726562 260 m 0
 772.80859375 101 672.236328125 -10 513.236328125 -10 c 0
 384.236328125 -10 287.80859375 101 315.844726562 260 c 0
 343.880859375 419 479.453125 530 608.453125 530 c 0
 767.453125 530 828.880859375 419 800.844726562 260 c 0
871.690429688 520 m 1
 801.159179688 120 l 1
 737.6328125 100 l 1
 811.690429688 520 l 1
 871.690429688 520 l 1
100.844726562 260 m 0
 146.513671875 519 374.71875 730 653.71875 730 c 0
 912.71875 730 1093.56640625 559 1047.8984375 300 c 0
 1006.22167969 63.638671875 881.954101562 -10.2880859375 806.052734375 -10.2880859375 c 4
 741.979492188 -10.2880859375 727.6171875 43.19921875 737.6328125 100 c 1
 801.159179688 120 l 1
 790.673828125 60.53515625 796.6875 32.859375 833.172851562 32.859375 c 4
 894.440429688 32.859375 984.413085938 115.765625 1016.8984375 300 c 0
 1059.74511719 543 891.60546875 701 648.60546875 701 c 0
 385.60546875 701 174.692382812 503 131.844726562 260 c 0
 88.998046875 17 250.084960938 -181 493.084960938 -181 c 1
 487.971679688 -210 l 1
 228.971679688 -210 55.1767578125 1 100.844726562 260 c 0
EndSplineSet
EndChar

StartChar: bracketleft
Encoding: 91 91 86
Width: 295
VWidth: 0
Flags: HMW
LayerCount: 2
Fore
SplineSet
223.844726562 674 m 1
 233.71875 730 l 1
 403.71875 730 l 1
 393.844726562 674 l 1
 223.844726562 674 l 1
69.734375 -200 m 1
 79.609375 -144 l 5
 249.609375 -144 l 5
 239.734375 -200 l 1
 69.734375 -200 l 1
173.71875 730 m 1
 233.71875 730 l 1
 69.734375 -200 l 1
 9.734375 -200 l 1
 173.71875 730 l 1
EndSplineSet
EndChar

StartChar: asciicircum
Encoding: 94 94 88
Width: 510
VWidth: 0
Flags: HMW
LayerCount: 2
Fore
SplineSet
515.8203125 430 m 5
 358.71875 730 l 1
 408.71875 730 l 1
 565.8203125 430 l 1
 515.8203125 430 l 5
358.71875 730 m 1
 408.71875 730 l 1
 145.8203125 430 l 1
 95.8203125 430 l 1
 358.71875 730 l 1
EndSplineSet
EndChar

StartChar: underscore
Encoding: 95 95 89
Width: 600
VWidth: 0
Flags: HMW
LayerCount: 2
Fore
SplineSet
-17.869140625 -90 m 5
 586.130859375 -90 l 5
 575.55078125 -150 l 1
 -28.44921875 -150 l 1
 -17.869140625 -90 l 5
EndSplineSet
EndChar

StartChar: braceleft
Encoding: 123 123 90
Width: 349
VWidth: 0
Flags: HMW
LayerCount: 2
Fore
SplineSet
97.0166015625 295 m 1
 115.016601562 295 l 1
 104.436523438 235 l 1
 86.4365234375 235 l 1
 97.0166015625 295 l 1
173.44921875 150 m 1
 233.44921875 150 l 1
 198.18359375 -50 l 1
 138.18359375 -50 l 1
 173.44921875 150 l 1
249.26953125 580 m 1
 309.26953125 580 l 1
 274.00390625 380 l 1
 214.00390625 380 l 1
 249.26953125 580 l 1
214.00390625 380 m 1
 274.00390625 380 l 1
 260.07421875 301 214.08203125 250 95.08203125 250 c 1
 97.0166015625 295 l 1
 185.016601562 295 206.951171875 340 214.00390625 380 c 1
173.44921875 150 m 1
 180.501953125 190 164.436523438 235 86.4365234375 235 c 1
 100.37109375 280 l 1
 219.37109375 280 247.37890625 229 233.44921875 150 c 1
 173.44921875 150 l 1
309.26953125 580 m 5
 249.26953125 580 l 1
 263.19921875 659 332.71875 730 451.71875 730 c 1
 448.020507812 675 l 1
 370.020507812 675 319.849609375 640 309.26953125 580 c 5
198.18359375 -50 m 5
 187.604492188 -110 225.432617188 -145 303.432617188 -145 c 5
 287.734375 -200 l 1
 168.734375 -200 124.25390625 -129 138.18359375 -50 c 1
 198.18359375 -50 l 5
EndSplineSet
EndChar

StartChar: bar
Encoding: 124 124 92
Width: 300
VWidth: 0
Flags: HMW
LayerCount: 2
Fore
SplineSet
322.53515625 780 m 5
 170.893554688 -80 l 5
 100.893554688 -80 l 5
 252.53515625 780 l 5
 322.53515625 780 l 5
EndSplineSet
EndChar

StartChar: asciitilde
Encoding: 126 126 93
Width: 470
VWidth: 0
Flags: HMW
LayerCount: 2
Fore
SplineSet
145.680664062 174 m 5
 79.20703125 194 l 5
 97.572265625 272.260742188 151.633789062 310.638671875 203.004882812 310.638671875 c 4
 266.619140625 310.638671875 310.911132812 246.962890625 355.153320312 246.962890625 c 4
 399.654296875 246.962890625 413.770507812 276.58984375 420.366210938 314 c 5
 476.83984375 294 l 5
 456.711914062 205.739257812 405.262695312 177.361328125 355.094726562 177.361328125 c 4
 293.536132812 177.361328125 252.33203125 241.037109375 209.748046875 241.037109375 c 4
 165.947265625 241.037109375 152.27734375 211.41015625 145.680664062 174 c 5
EndSplineSet
EndChar

StartChar: tilde
Encoding: 732 732 98
Width: 500
VWidth: 0
Flags: HMW
AnchorPoint: "dot" 357.56 610 basechar 0
LayerCount: 2
Fore
SplineSet
225.795898438 600 m 1
 169.322265625 620 l 1
 187.6875 698.260742188 241.749023438 736.638671875 293.120117188 736.638671875 c 0
 356.734375 736.638671875 409.263671875 662.962890625 453.505859375 662.962890625 c 4
 498.006835938 662.962890625 513.885742188 702.58984375 520.482421875 740 c 1
 566.955078125 720 l 1
 546.827148438 631.739257812 495.377929688 603.361328125 445.209960938 603.361328125 c 0
 383.651367188 603.361328125 334.2109375 677.037109375 291.626953125 677.037109375 c 0
 247.826171875 677.037109375 232.392578125 637.41015625 225.795898438 600 c 1
EndSplineSet
EndChar

StartChar: dotaccent
Encoding: 729 729 99
Width: 500
VWidth: 0
Flags: HMW
AnchorPoint: "dot" 354.033 590 basechar 0
LayerCount: 2
Fore
SplineSet
307.967773438 635 m 0
 313.2578125 665 341.666015625 690 371.666015625 690 c 0
 401.666015625 690 421.2578125 665 415.967773438 635 c 0
 410.677734375 605 382.26953125 580 352.26953125 580 c 0
 322.26953125 580 302.677734375 605 307.967773438 635 c 0
EndSplineSet
EndChar

StartChar: ring
Encoding: 730 730 100
Width: 500
VWidth: 0
Flags: HMW
AnchorPoint: "ring" 354.033 590 basechar 0
LayerCount: 2
Fore
SplineSet
319.90234375 680 m 0
 314.7890625 651 332.0859375 630 361.0859375 630 c 0
 390.0859375 630 414.7890625 651 419.90234375 680 c 0
 425.015625 709 407.71875 730 378.71875 730 c 4
 349.71875 730 325.015625 709 319.90234375 680 c 0
269.90234375 680 m 0
 279.600585938 735 332.53515625 780 387.53515625 780 c 0
 442.53515625 780 479.600585938 735 469.90234375 680 c 0
 460.204101562 625 407.26953125 580 352.26953125 580 c 0
 297.26953125 580 260.204101562 625 269.90234375 680 c 0
EndSplineSet
EndChar

StartChar: breve
Encoding: 728 728 101
Width: 500
VWidth: 0
Flags: HMW
AnchorPoint: "dot" 346.094 579 basechar 0
LayerCount: 2
Fore
SplineSet
358.436523438 649 m 1
 298.436523438 649 259.431640625 683 267.895507812 731 c 1
 201.836914062 725 l 1
 186.143554688 636 247.09375 579 346.09375 579 c 1
 358.436523438 649 l 1
358.436523438 649 m 1
 346.09375 579 l 1
 445.09375 579 526.143554688 636 541.836914062 725 c 1
 477.895507812 731 l 5
 469.431640625 683 418.436523438 649 358.436523438 649 c 1
EndSplineSet
EndChar

StartChar: circumflex
Encoding: 710 710 102
Width: 500
VWidth: 0
Flags: HMW
AnchorPoint: "dot" 361.086 630 basechar 0
LayerCount: 2
Fore
SplineSet
426.0859375 630 m 1
 343.71875 730 l 1
 413.71875 730 l 1
 496.0859375 630 l 1
 426.0859375 630 l 1
343.71875 730 m 1
 413.71875 730 l 1
 296.0859375 630 l 1
 226.0859375 630 l 1
 343.71875 730 l 1
EndSplineSet
EndChar

StartChar: caron
Encoding: 711 711 103
Width: 500
VWidth: 0
Flags: HMW
AnchorPoint: "dot" 361.086 630 basechar 0
LayerCount: 2
Fore
SplineSet
313.71875 730 m 1
 396.0859375 630 l 1
 326.0859375 630 l 1
 243.71875 730 l 1
 313.71875 730 l 1
396.0859375 630 m 1
 326.0859375 630 l 1
 443.71875 730 l 1
 513.71875 730 l 1
 396.0859375 630 l 1
EndSplineSet
EndChar

StartChar: cent
Encoding: 162 162 105
Width: 600
VWidth: 0
Flags: HMW
LayerCount: 2
Fore
SplineSet
415 600 m 5
 455 600 l 5
 355 -80 l 1
 315 -80 l 1
 415 600 l 5
EndSplineSet
Refer: 30 99 N 1 0 0 1 10 0 2
EndChar

StartChar: sterling
Encoding: 163 163 108
Width: 600
VWidth: 0
Flags: HMW
LayerCount: 2
Fore
SplineSet
151.171875 35 m 1
 76.8232421875 -1 l 1
 295.056640625 272.541992188 164.181640625 278.921875 208.453125 530 c 1
 268.453125 530 l 1
 236.029296875 346.112304688 331.982421875 209.735351562 151.171875 35 c 1
140.591796875 -25 m 1
 76.8232421875 -1 l 1
 165.188476562 77.2607421875 203.017578125 91.638671875 274.388671875 91.638671875 c 0
 338.002929688 91.638671875 367.295898438 27.962890625 411.538085938 27.962890625 c 4
 466.0390625 27.962890625 495.625976562 54.58984375 522.221679688 92 c 5
 567.342773438 70 l 1
 527.21484375 -18.2607421875 458.41015625 -31.638671875 408.2421875 -31.638671875 c 0
 326.68359375 -31.638671875 282.243164062 42.037109375 239.659179688 42.037109375 c 0
 195.858398438 42.037109375 167.188476562 12.41015625 140.591796875 -25 c 1
111.123046875 375 m 1
 409.123046875 375 l 1
 398.54296875 315 l 1
 100.54296875 315 l 1
 111.123046875 375 l 1
418.73046875 645 m 1
 424.192382812 710 l 1
 506.192382812 710 567.962890625 669 594.559570312 610 c 1
 553.919921875 561 l 1
 533.795898438 600 492.73046875 645 418.73046875 645 c 1
268.453125 530 m 1
 208.453125 530 l 1
 225.91015625 629 315.192382812 710 424.192382812 710 c 1
 418.73046875 645 l 1
 333.73046875 645 278.856445312 589 268.453125 530 c 1
EndSplineSet
EndChar

StartChar: currency
Encoding: 164 164 109
Width: 600
VWidth: 0
Flags: HMW
LayerCount: 2
Fore
SplineSet
190.719726562 316 m 0
 174.673828125 225 235.625 151 326.625 151 c 0
 417.625 151 504.673828125 225 520.719726562 316 c 0
 536.764648438 407 475.813476562 481 384.813476562 481 c 0
 293.813476562 481 206.764648438 407 190.719726562 316 c 0
172.20703125 194 m 1
 205.978515625 153 l 1
 93.05078125 57 l 1
 59.2802734375 98 l 1
 172.20703125 194 l 1
443.859375 158 m 1
 492.088867188 199 l 1
 575.280273438 98 l 1
 527.05078125 57 l 1
 443.859375 158 l 1
618.03515625 573 m 1
 651.805664062 532 l 1
 518.880859375 419 l 1
 485.110351562 460 l 1
 618.03515625 573 l 1
135.805664062 532 m 1
 184.03515625 573 l 5
 277.110351562 460 l 5
 228.880859375 419 l 1
 135.805664062 532 l 1
139.54296875 315 m 0
 160.526367188 434 274.629882812 531 393.629882812 531 c 0
 512.629882812 531 592.526367188 434 571.54296875 315 c 0
 550.560546875 196 436.456054688 99 317.456054688 99 c 0
 198.456054688 99 118.560546875 196 139.54296875 315 c 0
EndSplineSet
EndChar

StartChar: brokenbar
Encoding: 166 166 111
Width: 300
VWidth: 0
Flags: HMW
LayerCount: 2
Fore
SplineSet
266.110351562 460 m 5
 196.110351562 460 l 5
 252.53515625 780 l 1
 322.53515625 780 l 1
 266.110351562 460 l 5
234.37109375 280 m 1
 170.893554688 -80 l 1
 100.893554688 -80 l 1
 164.37109375 280 l 1
 234.37109375 280 l 1
EndSplineSet
EndChar

StartChar: section
Encoding: 167 167 112
Width: 520
VWidth: 0
Flags: HMW
LayerCount: 2
Fore
SplineSet
439.685546875 140 m 1
 499.685546875 140 l 1
 485.755859375 61 412.236328125 -10 273.236328125 -10 c 0
 164.236328125 -10 106.524414062 37 63.337890625 104 c 1
 113.21484375 143 l 1
 150.3984375 93 196.698242188 55 284.698242188 55 c 0
 367.698242188 55 429.106445312 80 439.685546875 140 c 1
318.842773438 277 m 0
 432.4921875 258 520.844726562 260 499.685546875 140 c 1
 439.685546875 140 l 1
 450.265625 200 401.228515625 207.76171875 295.321289062 223 c 0
 194.403320312 237.520507812 67.8349609375 328 233.40234375 473 c 1
 283.40234375 473 l 1
 160.48046875 343 223.920898438 292.869140625 318.842773438 277 c 0
251.03515625 573 m 1
 191.03515625 573 l 1
 204.436523438 649 291.192382812 710 400.192382812 710 c 0
 509.192382812 710 554.138671875 670 588.733398438 628 c 1
 541.798828125 583 l 1
 509.6171875 616 477.436523438 649 389.436523438 649 c 0
 301.436523438 649 256.677734375 605 251.03515625 573 c 1
381.9296875 493 m 0
 495.579101562 474 620.825195312 396 454.375976562 246 c 5
 404.375976562 246 l 5
 527.298828125 376 462.962890625 421.76171875 357.0546875 437 c 0
 256.137695312 451.520507812 174.284179688 478 191.03515625 573 c 1
 251.03515625 573 l 1
 242.21875 523 287.0078125 508.869140625 381.9296875 493 c 0
EndSplineSet
EndChar

StartChar: copyright
Encoding: 169 169 114
Width: 850
VWidth: 0
Flags: HMW
LayerCount: 2
Fore
SplineSet
113 350 m 0
 113 174 254 30 425 30 c 0
 596 30 737 174 737 350 c 0
 737 526 596 670 425 670 c 0
 254 670 113 526 113 350 c 0
70 350 m 0
 70 549 230 710 425 710 c 0
 620 710 780 549 780 350 c 0
 780 151 620 -10 425 -10 c 0
 230 -10 70 151 70 350 c 0
EndSplineSet
Refer: 8 67 N 0.5 0 0 0.5 220.5 175 2
EndChar

StartChar: registered
Encoding: 174 174 116
Width: 850
VWidth: 0
Flags: HMW
LayerCount: 2
Fore
SplineSet
113 350 m 0
 113 174 254 30 425 30 c 0
 596 30 737 174 737 350 c 0
 737 526 596 670 425 670 c 0
 254 670 113 526 113 350 c 0
70 350 m 0
 70 549 230 710 425 710 c 0
 620 710 780 549 780 350 c 0
 780 151 620 -10 425 -10 c 0
 230 -10 70 151 70 350 c 0
EndSplineSet
Refer: 17 82 S 0.5 0 0 0.5 252 175 2
EndChar

StartChar: degree
Encoding: 176 176 119
Width: 400
VWidth: 0
Flags: HMW
LayerCount: 2
Fore
SplineSet
249.90234375 680 m 0
 243.025390625 641 268.559570312 610 307.559570312 610 c 0
 346.559570312 610 383.025390625 641 389.90234375 680 c 0
 396.779296875 719 371.245117188 750 332.245117188 750 c 0
 293.245117188 750 256.779296875 719 249.90234375 680 c 0
219.90234375 680 m 0
 229.600585938 735 282.53515625 780 337.53515625 780 c 0
 392.53515625 780 429.600585938 735 419.90234375 680 c 0
 410.204101562 625 357.26953125 580 302.26953125 580 c 0
 247.26953125 580 210.204101562 625 219.90234375 680 c 0
EndSplineSet
EndChar

StartChar: mu
Encoding: 181 181 120
Width: 635
VWidth: 0
Flags: HMW
LayerCount: 2
Fore
SplineSet
120 220 m 1
 180 220 l 5
 100 -198 l 5
 40 -198 l 1
 120 220 l 1
EndSplineSet
Refer: 40 117 N 1 0 0 1 0 0 2
EndChar

StartChar: grave
Encoding: 96 96 123
Width: 320
VWidth: 0
Flags: HMW
AnchorPoint: "dot" 304.033 590 basechar 0
LayerCount: 2
Fore
SplineSet
294.033203125 590 m 1
 198.71875 730 l 1
 288.71875 730 l 5
 344.033203125 590 l 5
 294.033203125 590 l 1
EndSplineSet
EndChar

StartChar: acute
Encoding: 180 180 124
Width: 320
VWidth: 0
Flags: HMW
AnchorPoint: "dot" 224.033 590 basechar 0
LayerCount: 2
Fore
SplineSet
234.033203125 590 m 1
 184.033203125 590 l 5
 288.71875 730 l 5
 378.71875 730 l 1
 234.033203125 590 l 1
EndSplineSet
EndChar

StartChar: logicalnot
Encoding: 172 172 126
Width: 540
VWidth: 0
Flags: HMW
LayerCount: 2
Fore
SplineSet
479.939453125 425 m 5
 549.939453125 425 l 5
 523.490234375 275 l 1
 453.490234375 275 l 1
 479.939453125 425 l 5
EndSplineSet
Refer: 78 45 N 1.13333 0 0.176327 1 8.96603 100 2
EndChar

StartChar: macron
Encoding: 175 175 127
Width: 300
VWidth: 0
Flags: HMW
LayerCount: 2
Fore
SplineSet
137.297851562 790 m 5
 441.297851562 790 l 5
 430.71875 730 l 1
 126.71875 730 l 1
 137.297851562 790 l 5
EndSplineSet
EndChar

StartChar: paragraph
Encoding: 182 182 130
Width: 600
VWidth: 0
Flags: HMW
LayerCount: 2
Fore
SplineSet
588.428710938 700 m 5
 580.670898438 656 l 5
 468.670898438 656 l 1
 476.428710938 700 l 1
 588.428710938 700 l 5
648.428710938 700 m 1
 525 0 l 1
 465 0 l 5
 588.428710938 700 l 5
 648.428710938 700 l 1
478.428710938 700 m 1
 355 0 l 1
 295 0 l 1
 418.428710938 700 l 1
 478.428710938 700 l 1
340.844726562 260 m 1
 241.844726562 260 136.890625 351 159.63671875 480 c 0
 182.3828125 609 319.428710938 700 418.428710938 700 c 1
 386.690429688 520 372.583984375 440 340.844726562 260 c 1
EndSplineSet
EndChar

StartChar: cedilla
Encoding: 184 184 131
Width: 320
VWidth: 0
Flags: HMW
AnchorPoint: "ced" 145.823 -1 basechar 0
LayerCount: 2
Fore
SplineSet
89.2900390625 30 m 5
 129.290039062 30 l 5
 173.294921875 -4 231.241210938 -44 221.014648438 -102 c 4
 212.727539062 -149 184.555664062 -184 117.555664062 -184 c 4
 80.5556640625 -184 45.0244140625 -170 26.6689453125 -155 c 5
 51.958984375 -125 l 5
 60.4296875 -128 78.314453125 -140 108.314453125 -140 c 4
 139.314453125 -140 164.901367188 -131 170.543945312 -99 c 4
 176.71484375 -64 129.413085938 -9 89.2900390625 30 c 5
EndSplineSet
EndChar

StartChar: dotlessi
Encoding: 305 305 225
Width: 250
VWidth: 0
Flags: HMW
AnchorPoint: "ced" 125 0 basechar 0
LayerCount: 2
Fore
SplineSet
176.690429688 520 m 1
 256.690429688 520 l 1
 165 0 l 1
 85 0 l 1
 176.690429688 520 l 1
EndSplineSet
EndChar

StartChar: uni0237
Encoding: 567 567 349
Width: 250
VWidth: 0
Flags: HW
HStem: -210 75<-47.9045 68.9875> 500 20G<89 169>
VStem: 89 80<-116.766 520>
LayerCount: 2
Fore
SplineSet
180.690429688 520 m 1
 260.690429688 520 l 1
 158.419921875 -60 l 1
 78.419921875 -60 l 1
 180.690429688 520 l 1
4.1962890625 -135 m 1
 -3.0283203125 -210 l 1
 -60.0283203125 -210 -107.20703125 -194 -128.211914062 -160 c 1
 -79.80859375 -101 l 1
 -66.1591796875 -120 -38.8037109375 -135 4.1962890625 -135 c 1
78.419921875 -60 m 1
 158.419921875 -60 l 1
 144.490234375 -139 85.9716796875 -210 -3.0283203125 -210 c 1
 4.1962890625 -135 l 1
 41.1962890625 -135 71.3671875 -100 78.419921875 -60 c 1
EndSplineSet
EndChar

StartChar: kgreenlandic
Encoding: 312 312 573
Width: 570
VWidth: 0
Flags: HW
AnchorPoint: "dot" 325 673 basechar 0
AnchorPoint: "ced" 495 0 basechar 0
LayerCount: 2
Fore
SplineSet
245 291 m 1
 325 305 l 1
 545 0 l 1
 455 0 l 1
 245 291 l 1
430 520 m 1
 525 520 l 1
 165 110 l 1
 110 154 l 1
 430 520 l 1
85 520 m 5
 165 520 l 5
 165 0 l 1
 85 0 l 1
 85 520 l 5
EndSplineSet
EndChar

StartChar: ogonek
Encoding: 731 731 574
Width: 320
VWidth: 0
Flags: HW
AnchorPoint: "ced" 149 0 basechar 0
LayerCount: 2
Fore
SplineSet
214.290039062 30 m 1
 160.413085938 -9 93.71484375 -64 87.5439453125 -99 c 0
 81.9013671875 -131 104.314453125 -140 135.314453125 -140 c 0
 165.314453125 -140 187.4296875 -128 196.958984375 -125 c 1
 211.668945312 -155 l 1
 188.024414062 -170 147.555664062 -184 110.555664062 -184 c 0
 43.5556640625 -184 27.7275390625 -149 36.0146484375 -102 c 0
 46.2412109375 -44 118.294921875 -4 174.290039062 30 c 1
 214.290039062 30 l 1
EndSplineSet
EndChar

StartChar: AE
Encoding: 198 198 582
Width: 1090
VWidth: 0
Flags: HW
LayerCount: 2
Fore
SplineSet
440 700 m 1
 565 700 l 1
 560 630 l 5
 440 630 l 5
 440 700 l 1
204 260 m 1
 596 260 l 1
 596 195 l 1
 204 195 l 1
 204 260 l 1
440 700 m 1
 505 690 l 1
 115 0 l 1
 40 0 l 1
 440 700 l 1
EndSplineSet
Refer: 0 69 N 1 0 0 1 430 0 2
EndChar

StartChar: fi
Encoding: 64257 64257 585
Width: 375
VWidth: 0
Flags: HW
AnchorPoint: "ced" 158 0 basechar 0
LayerCount: 2
Fore
SplineSet
136.690429688 520 m 1
 439.690429688 520 l 1
 429.110351562 460 l 1
 126.110351562 460 l 1
 136.690429688 520 l 1
294.033203125 590 m 1
 190 0 l 1
 125 0 l 1
 229.033203125 590 l 1
 294.033203125 590 l 1
294.033203125 590 m 5
 229.033203125 590 l 1
 242.962890625 669 305.482421875 740 394.482421875 740 c 1
 389.90234375 680 l 1
 324.90234375 680 302.143554688 636 294.033203125 590 c 5
389.90234375 680 m 1
 394.482421875 740 l 1
 433.189453125 740 463.827148438 731.815429688 484.947265625 708.608398438 c 1
 473.025390625 641 l 1
 458.494140625 655 433.90234375 680 389.90234375 680 c 1
EndSplineSet
EndChar
